<svg xmlns="http://www.w3.org/2000/svg" xmlns:xlink="http://www.w3.org/1999/xlink" width="501" height="79" viewBox="0 0 501 79">
    <defs>
        <path id="nxuv74qc5a" d="M0.329 0.015L5.009 0.015 5.009 14.917 0.329 14.917z"/>
        <path id="685r9bpixc" d="M0.259 0.073L76.041 0.073 76.041 78.283 0.259 78.283z"/>
        <path id="0qow1r4kve" d="M0 78.283L498.834 78.283 498.834 0.073 0 0.073z"/>
    </defs>
    <g fill="none" fill-rule="evenodd" opacity=".85">
        <g>
            <g>
                <g>
                    <g>
                        <path fill="#000" d="M124.926 8.7h.133l1.871 6.658h-3.913l1.91-6.658zm-2.325 8.103h4.726l.7 2.484h1.985l-3.876-12.48-2.116.06-4.009 12.42h1.872l.718-2.484z" transform="translate(-1353 -31) translate(1353 31.517)"/>
                        <g transform="translate(-1353 -31) translate(1353 31.517)">
                            <path fill="#000" d="M135.89 19.936c.88 0 1.9-.062 2.78-.434l.08-1.609c-.76.206-1.58.372-2.26.372-1.68 0-3.139-1.053-3.139-3.716 0-1.485.38-2.455.94-3.074.46-.352 1.06-.537 1.8-.537.819 0 1.6.145 2.399.35l.12-1.588c-.66-.31-1.48-.434-2.34-.434-2.9 0-4.84 2.065-4.84 5.47 0 3.466 2.12 5.2 4.46 5.2M146.39 17.088c-.74.825-1.66 1.177-2.46 1.177-1.14 0-1.74-.683-1.74-1.694 0-.494.08-.948.32-1.32.76-.434 1.64-.454 2.5-.454.52 0 .92.02 1.38.063v2.228zm-1.16-3.611c-1.1 0-2.4.081-3.24.556-1 .496-1.62 1.527-1.62 2.849 0 1.341.86 2.972 3 2.972 1.16 0 2.18-.475 3.04-1.341l.119.04.14 1.156h1.6V12.96c0-2.538-1.32-3.695-3.739-3.695-1.16 0-2.36.228-3.44.58l-.12 1.588c1.08-.33 2.3-.537 3.26-.537 1.82 0 2.18.805 2.18 2.416v.205c-.38-.04-.74-.04-1.18-.04zM157.088 17.15c-.92 1.011-1.799 1.115-2.22 1.115-1.639 0-2.46-1.342-2.46-3.633 0-1.466.36-2.662 1.081-3.323.64-.33 1.22-.454 1.94-.454.56 0 1.12.083 1.66.248v6.047zm1.86-11.97l-1.86.248v4.065c-.5-.144-.96-.206-1.479-.206-2.7 0-5.12 1.836-5.12 5.675 0 3.179 1.62 4.912 3.78 4.912.92 0 1.98-.33 2.839-1.259l.14.062.14 1.031h1.56V5.18zM164.128 11.371c.52-.455 1.22-.599 1.78-.599 1.42 0 2.12.95 2.18 2.91h-4.82c.12-1.114.48-1.815.86-2.31m2.06 8.564c.84 0 2.02-.144 3.08-.557l.1-1.465c-1.061.33-2.101.453-2.92.453-1.94 0-3.1-.97-3.2-3.405h6.54c.12-.578.12-1.032.12-1.568 0-2.704-1.54-4.128-3.92-4.128-3.02 0-4.62 2.332-4.62 5.448 0 3.323 1.84 5.222 4.82 5.222M174.027 11.783c1-.598 1.9-.804 2.6-.804 1.18 0 1.759.516 1.759 1.837v6.893h1.86v-7.243c0-.27 0-.496-.04-.703 1.04-.578 1.92-.784 2.66-.784 1.18 0 1.74.516 1.74 1.837v6.893h1.86v-7.265c0-2.228-.96-3.137-2.78-3.137-1.44 0-2.74.598-3.7 1.197l-.14-.062c-.44-.825-1.24-1.135-2.4-1.135-1.279 0-2.419.537-3.339 1.177l-.14-.042-.06-1.073-1.74.228v10.112h1.86v-7.926zM197.026 9.555L195.066 9.555 192.766 17.77 192.606 17.77 190.006 9.555 187.947 9.555 191.706 19.606 191.706 19.75 189.806 23.672 191.806 23.672 193.665 19.524zM204.645 11.723c.56-.6 1.08-.868 2.04-.868 1.56 0 2.72 1.135 2.72 3.694 0 1.28-.24 2.27-.62 2.973-.54.577-1.22.867-2.04.867-1.78 0-2.82-1.26-2.82-3.757 0-1.197.24-2.166.72-2.91m1.84 8.234c2.94 0 4.86-2.187 4.86-5.634 0-3.095-1.96-5.035-4.42-5.035-3.04 0-4.92 2.166-4.92 5.613 0 3.117 1.92 5.056 4.48 5.056M214.184 19.708h1.86v-8.647h2.74l.1-1.506h-2.84V8.048c0-.392.04-.742.12-1.032.28-.227.68-.35 1.24-.35.62 0 1.22.082 1.72.165l.26-1.548c-.64-.145-1.3-.206-1.84-.206-2.06 0-3.36.887-3.36 3.22v1.258l-1.66.145-.059 1.361h1.72v8.647zM228.603 8.977h.14l1.98 6.749h-4.14l2.02-6.749zm-2.46 8.214h5l.74 2.518h2.1l-4.1-12.65-2.24.06-4.24 12.59h1.98l.76-2.518zM237.304 12.094c.84-.702 1.52-.909 2.32-.909.34 0 .68.042 1.06.124l.14-1.754c-.36-.144-.7-.206-1.041-.206-.82 0-1.62.433-2.42 1.383l-.119-.042-.04-1.32-1.76.227v10.112h1.86v-7.615zM243.183 17.79c0 1.423.58 2.042 2.28 2.042.54 0 1.16-.102 1.76-.288l.02-1.527c-.58.102-1.02.124-1.36.124-.26 0-.54-.022-.84-.063V11.06h2.24l.12-1.506-2.36-.021V6.85l-1.52.207-.24 2.456-1.5.083-.08 1.443h1.48v6.75zM251.982 18.43c-.76 0-1.74-.228-2.84-.784l-.34 1.527c.92.475 1.86.742 2.98.742 2.56 0 3.84-1.403 3.84-3.013 0-3.075-4.9-3.467-4.9-5.139 0-.31.141-.556.4-.763.32-.165.88-.288 1.46-.288.64 0 1.52.143 2.48.597l.32-1.528c-.92-.35-1.78-.515-2.64-.515-2.16 0-3.759 1.053-3.759 2.745 0 2.972 4.82 3.157 4.82 5.18 0 .351-.14.66-.361.887-.38.248-.9.351-1.46.351M263.74 13.682l-1.759.103c-.12 1.198-.18 2.354-.18 3.262v2.662h1.94v-6.027zM268.24 10.628c.08.579.08 1.219.08 1.858v7.222h1.96v-7.47c0-2.93-.74-3.385-4.76-3.385-1.319 0-2.779.062-4.019.186l.12 1.631c1.3-.104 2.84-.166 4.02-.166 1 0 1.88.02 2.6.124M273.48 10.587v4.705h1.94V10.67c0-1.507-.439-1.755-1.959-1.755-.48 0-1.08 0-1.58.02l.16 1.652h1.44zM279.581 19.708l.68-8.42c1.259-.576 2.479-.7 3.4-.7.479 0 .839.02 1.159.082.1.805.1 1.609.1 2.456v4.85h-2.98v1.732h4.9v-6.913c0-3.219-.54-3.942-2.86-3.942-1.44 0-2.7.31-4.14 1.115l-.38-1.176-1.78.123.76 2.395-.84 8.398h1.981zM293.64 10.587c-.16 1.218-.24 2.435-.24 4.354v4.789h1.979v-9.082l1.42-.144V8.957H288.5l.12 1.63h5.02zM305.939 10.732L302.7 19.708 304.679 19.708 307.798 10.525 307.599 8.936 298.66 8.936 298.779 10.588 305.879 10.588z"/>
                            <path fill="#000" d="M300.8 13.27l-1.74.041c-.14 1.238-.2 2.704-.2 3.653v6.728h1.94V13.27zM318.118 11.907l.26-2.971h-1.94l-.14 2.539c-.04 1.135-.34 2.29-.72 2.971l-.14.062c-1.44-1.816-2.96-3.818-4.54-5.675l-2.16.165c.781.867 1.58 1.816 2.36 2.745v.103c-.76 1.012-1.24 2.331-1.399 3.983l-.34 3.88h1.96l.2-3.262c.06-1.155.28-2.29.62-3.24l.099-.02c1.48 1.899 3.2 4.19 4.82 6.522h2.04v-.227c-.84-1.28-1.68-2.456-2.54-3.632.84-.93 1.42-2.353 1.56-3.943M38.018 45.92c-.58-.02-1.22.063-1.72.27.041.556.18 1.114.36 1.753l1.52-.227-.16-1.795zM34.919 45.92c-.58-.02-1.22.063-1.72.27.04.556.18 1.114.36 1.753l1.52-.227-.16-1.795zM71.677 35.272l-.16-1.796c-.58-.02-1.22.062-1.72.268.04.558.18 1.115.36 1.754l1.52-.226zM74.697 35.272l-.16-1.796c-.581-.02-1.22.062-1.72.268.04.558.18 1.115.36 1.754l1.52-.226z"/>
                            <path fill="#000" d="M60.377 42.722c-.78 0-1.8-.042-2.9-.31l-.04-.144c2.18-2.951 3.76-4.376 5-4.376 1.799 0 2.939 1.962 2.919 3.675-1.32.805-3.44 1.155-4.98 1.155m-14.698-.082c-.98 0-2.08-.289-2.86-1.032.78-2.477 1.5-3.57 2.62-3.57s1.78 1.01 2.58 3.61c-.62.682-1.5.992-2.34.992m-18.658.164c-1.08 0-2.3-.248-3.22-.474.56-2.415 1.34-4.086 2.699-4.086 1.32 0 1.76 1.403 2.66 4.044-.7.414-1.42.516-2.14.516m51.717.62c.62-.496 1.02-1.196 1.04-2.498l.14-11.763-1.959.206.1 12.487c-.68.474-1.24.62-2.1.62-1.101 0-2.14-.228-2.9-.662l.14-4.809-1.78.124-.18 4.705c-.78.434-1.58.641-2.84.641l-.011.001h-.01c-.48 0-1.02-.064-1.66-.188.16-.288.24-.66.24-1.093 0-2.168-1.54-5.222-4.16-5.222-2 0-4.259 2.187-6.799 5.965l-1.06-.557.52-3.014-1.68.062-.36 2.394c-.22 1.342-.9 1.61-2.3 1.652l-.008.001h-.012c-.94 0-1.34-.642-1.66-1.55-.88-2.62-1.54-4.808-3.739-4.808-2.12 0-3.12 2.002-4.3 5.303-.44.807-1.02 1.054-1.7 1.054-1.1 0-2.139-.227-2.9-.66l.14-4.81-1.78.124-.18 4.705c-.778.434-1.579.641-2.838.641h-.001c-1.1 0-1.5-.66-1.7-1.239-.7-2.125-1.5-4.911-3.76-4.911-2.22 0-3.4 2.538-4.22 5.696-.24-.063-.42-.083-.54-.083-.519.062-.999.702-.999 1.26 0 .597.02 1.216.04 2.063l.22 5.2h1.84l-.54-6.624.1-.083c1.16.475 2.72.846 4.199.846 1.44 0 2.38-.371 3.06-1.011h.12c.46.516 1.119.785 2.18.785 1.34 0 2.68-.331 3.74-1.177h.14c.98.805 2.259 1.177 3.68 1.177 1-.022 1.64-.228 2.36-1.198h.16c.84.826 1.92 1.404 3.339 1.404 1 0 2.02-.33 3-1.487h.16c.62.97 1.4 1.28 2.38 1.28h.02c1.32 0 2.46-.37 3.18-1.403h.16c1.659 1.156 3.739 1.548 5.618 1.548 2.02 0 3.96-.413 5.22-1.031h.16c1.04.68 2.02.887 2.92.887l.01-.001h.011c1.34 0 2.68-.33 3.74-1.176h.14c.98.805 2.26 1.177 3.68 1.177 1.14 0 2.1-.331 2.779-.95M83.696 44.374L85.415 44.374 85.535 29.245 83.616 29.431zM92.256 42.495c-1.66 0-2.38-.557-2.52-1.094.02-1.217 1.02-2.93 2.32-2.93 1.259 0 2.14 1.444 2.279 3.714-.56.187-1.3.31-2.08.31m-1.46 4.457c-.619 0-1.46-.082-2.22-.37l-.22 1.65c.661.33 1.6.578 2.54.578 3.16 0 5-2.703 5-6.356 0-3.674-1.84-5.881-3.66-5.881-1.94 0-3.88 2.558-3.88 4.704 0 1.982 1.52 2.89 3.44 2.89.7 0 1.66-.124 2.52-.475-.22 2.125-1.3 3.26-3.52 3.26M110.333 38.677l.68 5.758c-.92 1.342-2.3 1.837-3.899 1.837-2.42 0-3.64-1.155-3.64-3.57 0-.888.16-1.797.44-2.807l-1.42-.31c-.52 1.404-.7 2.621-.7 3.612 0 3.281 2.06 5.014 5.08 5.014s5.6-1.733 5.6-4.788c0-.824-.161-2.93-.38-4.994l-1.76.248zM107.813 37.294l-.16-1.796c-.58-.02-1.219.063-1.719.268.04.559.18 1.115.36 1.755l1.52-.227zM126.853 35.498l1.52-.226-.16-1.796c-.58-.02-1.22.062-1.72.268.04.558.18 1.115.36 1.754M135.491 33.291l1.52-.227-.16-1.796c-.58-.02-1.22.062-1.72.269.041.556.18 1.114.36 1.754"/>
                            <path fill="#000" d="M135.871 41.566c-1.16-.68-1.998-1.692-2.119-2.765.24-1.053 1.28-2.002 2.3-2.002 1.039 0 2.08.62 2.42 2.641-.52.909-1.32 1.59-2.46 2.126h-.14zM119.133 42.6c-1.66 0-2.82-.29-2.98-1.322.1-1.114.861-2.662 2.12-2.662 1.38 0 2.26 1.816 2.36 3.984h-1.5zm31.779.824c.62-.495 1.019-1.196 1.04-2.497l.139-11.763-1.96.206.1 12.487c-.68.474-1.24.62-2.1.62-1 0-1.94-.249-2.66-.703l.12-12.59-1.959.208.08 12.402c-.72.475-1.46.682-2.62.682h-1.54c-.6 0-1.2-.063-1.78-.187l-.08-.082c1.3-.97 2.119-2.084 2.119-3.22 0-1.837-1.44-4.107-3.54-4.107-1.978 0-3.88 2.23-3.88 4.17 0 1.053.562 2.188 1.58 3.095l-.079.083c-.82.144-1.72.248-2.74.248-1.1 0-2.14-.227-2.9-.66l.14-4.81-1.779.124-.18 4.706c-.78.433-1.58.64-2.84.64l-.01.001h-1.41c-.16-3.964-1.96-5.76-3.6-5.76-1.98 0-3.799 2.353-3.799 4.644 0 2.003 1.5 2.95 4.08 2.95h1.68c-.301 1.755-1.48 2.622-3.46 2.622-.62 0-1.48-.124-2.22-.372l-.2 1.651c.62.332 1.56.579 2.5.579 2.68 0 4.4-1.838 4.879-4.416h1.54l.01-.001h.01c1.34 0 2.68-.33 3.74-1.176h.14c.98.805 2.26 1.177 3.68 1.177 1.58 0 3.14-.372 4.478-.93h.16c1.5.743 3.16.908 5.3.93 1.24 0 2.481-.311 3.5-1.218h.14c.94.826 2.18 1.218 3.4 1.218 1.14 0 2.1-.331 2.78-.95zM165.11 31.454l1.52-.228-.16-1.795c-.58-.02-1.22.062-1.72.268.04.558.18 1.115.36 1.755M162.09 31.454l1.52-.228-.16-1.795c-.58-.02-1.22.062-1.72.268.04.558.18 1.115.36 1.755M170.13 45.92c-.58-.02-1.22.063-1.72.27.04.556.18 1.114.36 1.753l1.519-.227-.16-1.795zM173.228 45.92c-.579-.02-1.22.063-1.719.27.04.556.18 1.114.36 1.753l1.52-.227-.16-1.795zM180.649 38.037c1.12 0 1.78 1.012 2.58 3.612-.62.681-1.5.99-2.34.99-.98 0-2.08-.288-2.86-1.03.78-2.478 1.5-3.572 2.62-3.572M162.09 40.39c-1.04 0-1.86-.186-2.14-.908.24-1.59 1.38-2.786 3.759-3.446l.18 4.148c-.6.165-1.26.206-1.8.206m21.678 2.704h.16c.62.97 1.4 1.28 2.38 1.28l.01-.001h.01c1.621 0 3-.391 3.78-1.052.64-.495.96-1.217.96-2.476 0-.744-.1-3.077-.26-4.583l-1.82.186.481 5.366c-.92.495-1.92.661-3.14.661l-.01.001h-.01c-.94 0-1.34-.641-1.66-1.55-.88-2.62-1.54-4.808-3.74-4.808-2.12 0-3.12 2.002-4.3 5.303-.439.807-1.02 1.054-1.7 1.054-1.1 0-2.14-.227-2.9-.66l.14-4.81-1.78.124-.18 4.706c-.78.433-1.58.64-2.84.64-1.5 0-1.839-.413-1.899-1.982l-.22-7.513-1.7.228.06 1.155c-4.04 1.342-5 3.716-5 5.263 0 1.383 1.1 2.498 3.38 2.498.54 0 1.3-.042 2.04-.268l.14.06c.28 1.755 1.2 2.458 3.2 2.458 1.34 0 2.68-.331 3.74-1.177h.14c.98.805 2.259 1.177 3.679 1.177 1-.022 1.64-.228 2.36-1.199h.16c.84.827 1.92 1.405 3.34 1.405 1 0 2.02-.33 3-1.486M189.748 46.189c.041.557.18 1.115.36 1.755l1.52-.228-.16-1.795c-.58-.02-1.22.062-1.72.268M187.009 47.943l1.52-.227-.16-1.795c-.58-.02-1.22.062-1.72.268.04.557.18 1.115.36 1.754M196.468 44.58c2.76 0 4.86-1.425 4.86-3.509 0-2.105-1.34-5.304-4.2-7.492l-1.22 1.548c2.26 1.817 3.74 4.148 3.9 6.357-.86.991-2.14 1.176-3.2 1.176s-1.94-.227-1.94-.867c0-.124.02-.309.04-.516l-1.4-.144c-.1.392-.18.847-.18 1.218 0 1.775 1.8 2.229 3.34 2.229M214.126 43.341c.7-.433 1.12-.99 1.12-1.898 0-1.507-1.32-4.52-4.259-6.976v-.165l4.76-3.302-.161-1.96-6.678 5.035v1.32l1.02.538c2.239 2.042 3.379 3.9 3.859 5.716-1.4.763-3.06.826-5.72.826l-.01.001h-.01c-1.4 0-1.96-.27-1.96-1.508V29.245l-1.92.206.18 11.702c.02 2.436 1.04 3.22 3.7 3.22h.02c3 0 4.82-.227 6.06-1.032M219.886 44.374L219.967 31.722 217.987 31.949 218.207 44.374zM219.127 27.409c.34 0 .72.062 1.06.227l.16-1.198c-.38-.206-.76-.288-1.12-.288-1.18 0-1.9.95-1.9 1.898 0 .537.26 1.011.74 1.424l-1.14.165v.991l4.24-.454V29.02l-1.161.164c-.94-.33-1.66-.783-1.78-1.299.2-.27.5-.475.9-.475M228.546 41.237c0-.496.08-.95.32-1.322.76-.433 1.64-.453 2.5-.453.52 0 .92.02 1.38.06v2.23c-.74.826-1.66 1.176-2.46 1.176-1.14 0-1.74-.68-1.74-1.691m4.22 1.939l.12.042.14 1.156h1.6v-6.75c0-2.538-1.32-3.693-3.74-3.693-1.16 0-2.36.226-3.44.576l-.12 1.59c1.08-.33 2.3-.536 3.26-.536 1.82 0 2.18.804 2.18 2.414v.207c-.38-.042-.74-.042-1.18-.042-1.1 0-2.4.083-3.24.558-1 .495-1.62 1.527-1.62 2.847 0 1.342.86 2.973 3 2.973 1.16 0 2.18-.475 3.04-1.342M243.905 44.374h1.86v-7.265c0-2.23-.98-3.138-2.82-3.138-1.44 0-2.6.579-3.52 1.177l-.14-.042-.06-1.072-1.74.226v10.114h1.86v-7.885c1.08-.64 2-.847 2.76-.847 1.2 0 1.8.517 1.8 1.838v6.894zM250.985 35.973c.64-.33 1.22-.454 1.94-.454.56 0 1.12.083 1.66.247v6.048c-.92 1.011-1.8 1.114-2.22 1.114-1.64 0-2.46-1.341-2.46-3.632 0-1.465.36-2.663 1.08-3.323m.78 8.565c.92 0 1.98-.33 2.84-1.259l.14.062.14 1.033h1.56v-14.53l-1.86.247v4.066c-.5-.144-.96-.206-1.48-.206-2.7 0-5.12 1.837-5.12 5.675 0 3.178 1.62 4.912 3.78 4.912M265.584 33.332c.58-.083 1.12-.083 1.72-.083 2.52 0 4.08 1.114 4.08 4.54 0 2.436-.7 3.88-2.18 4.789-.66.186-1.24.226-1.82.226-.58 0-1.18-.02-1.8-.082v-9.39zm7.839 4.252c0-4.872-3.14-5.986-5.879-5.986-.84 0-2.06 0-3.9.227v12.527c1.54.104 2.44.146 3.54.146 3.96 0 6.239-2.334 6.239-6.914zM277.924 36.035c.519-.454 1.219-.598 1.779-.598 1.42 0 2.12.949 2.18 2.91h-4.82c.12-1.115.48-1.816.86-2.312zm5.238 6.543c-1.06.33-2.1.454-2.919.454-1.94 0-3.1-.97-3.2-3.406h6.54c.12-.578.12-1.031.12-1.568 0-2.704-1.54-4.127-3.92-4.127-3.02 0-4.62 2.33-4.62 5.448 0 3.323 1.84 5.221 4.82 5.221.84 0 2.02-.144 3.08-.557l.1-1.465zM292.142 41.566c0-3.075-4.9-3.467-4.9-5.139 0-.31.14-.557.4-.763.32-.166.88-.29 1.46-.29.64 0 1.52.144 2.48.6l.32-1.528c-.92-.35-1.78-.515-2.64-.515-2.16 0-3.759 1.052-3.759 2.744 0 2.971 4.82 3.159 4.82 5.18 0 .351-.14.66-.36.888-.38.248-.9.35-1.46.35-.761 0-1.741-.226-2.84-.784l-.34 1.528c.92.474 1.859.743 2.98.743 2.56 0 3.84-1.404 3.84-3.014M294.663 30.566c.02.723.08 1.32.2 2.043l1.82-.04.12-2.065c-.761-.062-1.58-.021-2.14.062M296.862 44.374L296.862 34.219 293.582 34.219 293.503 35.664 295.022 35.746 295.022 44.374zM300.7 45.446c0-.68.341-1.26.92-1.879l1.06.187c1.98.269 3.64.372 3.64 1.651 0 1.073-1.3 1.858-2.919 1.858-1.48 0-2.7-.558-2.7-1.817m1.1-9.761c.58-.29 1.02-.351 1.42-.351 1.46 0 2.08.867 2.08 2.146 0 .804-.28 1.363-.7 1.754-.44.228-.9.289-1.28.289-1.52 0-2.24-.867-2.24-2.063 0-.723.28-1.3.72-1.775m6.14 9.328c0-2.146-2.04-2.497-4.8-2.91-.44-.062-.78-.103-1.48-.247l.26-1.135c.32.081.7.102 1.06.102 2.24 0 4.179-1.177 4.179-3.385 0-.887-.32-1.548-.98-2.042v-.146l2.12.084.1-1.383-3.64.144c-.46-.082-.9-.144-1.4-.144-2.319 0-4.139 1.424-4.139 3.653 0 1.197.54 2.042 1.4 2.58v.165c-.4.577-.56 1.032-.56 1.527 0 .454.14.804.42 1.115v.164c-.9.764-1.46 1.61-1.46 2.684 0 2.208 2 2.91 3.96 2.91 3.02 0 4.96-1.652 4.96-3.736M318.28 44.374v-7.265c0-2.23-.98-3.138-2.82-3.138-1.44 0-2.6.579-3.52 1.177l-.139-.042-.06-1.072-1.74.226v10.114h1.86v-7.885c1.08-.64 2-.847 2.76-.847 1.2 0 1.8.517 1.8 1.838v6.894h1.859zM19.218 62.362l.58 5.366c-1.36.063-2.66-.247-3.98-.866l.38-3.736-1.68.062-.34 3.962c-.64.413-1.359.517-1.98.517-.54 0-1.059-.083-1.559-.27-.06-1.03-.18-2.475-.34-3.9l-1.76.248.68 5.758c-.92 1.342-2.3 1.837-3.9 1.837-2.419 0-3.638-1.156-3.638-3.57 0-.888.159-1.796.439-2.807l-1.42-.31c-.52 1.403-.7 2.62-.7 3.612 0 3.28 2.06 5.015 5.08 5.015 2.76 0 5.159-1.444 5.538-4.025.46.165.98.269 1.48.269 1.08 0 2.2-.352 3.18-1.156h.16c1.16.702 2.28 1.156 3.68 1.156.82 0 1.36-.206 1.6-.433.4-.31.62-.93.62-1.734 0-.805-.18-3.281-.38-5.16l-1.74.165zM36.518 58.359l1.52-.227-.16-1.797c-.58-.02-1.22.063-1.72.27.04.557.18 1.113.36 1.754M40.898 56.335c-.58-.02-1.22.063-1.72.27.04.557.18 1.113.36 1.754l1.519-.228-.16-1.796z"/>
                            <path fill="#000" d="M38.398 66.634c-1.16-.68-2-1.691-2.12-2.766.24-1.051 1.28-2.002 2.3-2.002 1.04 0 2.08.62 2.419 2.642-.52.909-1.32 1.59-2.46 2.126h-.14zm7.32.29c-.681.474-1.24.619-2.1.619h-1.541c-.6 0-1.2-.062-1.78-.186l-.08-.083c1.3-.97 2.12-2.084 2.12-3.219 0-1.837-1.44-4.107-3.54-4.107-1.979 0-3.878 2.23-3.878 4.169 0 1.052.56 2.187 1.58 3.096l-.081.082c-.82.144-1.72.248-2.74.248l-.01.001-.01-.001c-.86 0-1.66-.29-2.22-2.023l-2-6.108-1.719.268 2.52 7.098-.08.104c-1.181.66-2.3.909-3.5.909-1.34 0-1.72-.31-1.72-.991 0-.166 0-.248.04-.454l-1.4-.144c-.12.412-.18.845-.18 1.237 0 1.59 1 2.25 3 2.25 1.98 0 3.359-.64 4.4-1.548h.16c.659.929 1.539 1.3 2.698 1.3H33.678c1.58 0 3.14-.371 4.48-.929h.16c1.5.744 3.159.908 5.299.93h.001c1.139 0 2.1-.33 2.779-.95.62-.496 1.02-1.197 1.04-2.497l.14-11.764-1.96.206.1 12.486zM51.357 69.441L53.076 69.441 53.196 54.313 51.277 54.5zM67.895 67.77h-5.139v-7.45c1.02-.084 1.84-.104 2.46-.104 1.22 0 2 .041 2.6.124.039.515.08 1.074.08 1.898v5.531zm-3.04-9.185c-1.36 0-2.92.104-4.218.228l.14 1.63v8.998h9.078v-7.037c0-3.427-.72-3.819-5-3.819zM73.035 58.648c-.48 0-1.08 0-1.58.02l.16 1.651h1.44v4.706h1.94v-4.622c0-1.507-.44-1.755-1.96-1.755M78.315 58.668L78.115 55.366 76.355 55.572 76.495 58.668 76.735 60.319 82.275 60.319 82.315 60.463 78.375 69.441 80.474 69.441 84.274 60.175 84.094 58.668zM94.654 63.808c-.32 3.26-1.76 4.045-4.279 4.045-.7 0-1.34-.02-1.96-.104l-.22-2.106c1.9-.247 3.359-.99 3.679-3.136l.64-3.818h-1.84l-.42 3.137c-.22 1.61-.88 2.208-2.04 2.414h-.16l-.56-5.572h-1.88l.94 8.606c.06.62.14 1.218.26 1.961 1.14.268 2.56.33 3.68.33 3.06 0 5.44-1.135 5.92-5.118l.68-5.758h-1.96l-.48 5.119zM100.094 58.648c-.5 0-1.04 0-1.54.02l.1 1.651h1.44v9.123h1.96v-9.02c0-1.486-.44-1.774-1.96-1.774M106.913 58.585c-1.14 0-2.18.063-3.12.144l.12 1.673c.96-.103 2.06-.166 3.02-.166s1.78.022 2.32.103c.06.58.06 1.075.06 1.735v7.367h1.96v-7.223c0-3.22-.36-3.633-4.36-3.633M114.692 58.648c-.48 0-1.08 0-1.58.02l.161 1.651h1.44v4.706h1.94v-4.622c0-1.507-.44-1.755-1.96-1.755M126.292 65.251c0 .805-.021 1.672-.18 2.478-.38.144-.76.206-1.32.206-.78 0-1.54-.124-2.24-.33l-.12 1.527c.64.33 1.32.516 2.22.516 1.06 0 2-.185 2.599-.847.72-.764.98-2.208.98-4.024v-7.925h-1.94v8.4zM132.452 63.415c.12-1.114.48-1.816.86-2.312.519-.454 1.22-.598 1.78-.598 1.419 0 2.12.95 2.18 2.91h-4.82zm2.719-4.416c-3.02 0-4.62 2.331-4.62 5.448 0 3.322 1.84 5.22 4.82 5.22.84 0 2.02-.143 3.08-.556l.1-1.466c-1.06.331-2.1.455-2.92.455-1.94 0-3.1-.97-3.2-3.405h6.54c.12-.578.12-1.032.12-1.57 0-2.702-1.54-4.126-3.92-4.126zM143.27 60.463l-.12-.04-.04-1.322-1.76.227v10.113h1.86v-7.615c.84-.702 1.52-.908 2.32-.908.339 0 .68.04 1.059.124l.141-1.754c-.36-.144-.7-.207-1.04-.207-.82 0-1.62.433-2.42 1.382M154.57 66.902c-1.04.95-1.84 1.157-2.58 1.157-1.22 0-1.82-.496-1.82-1.857v-6.914h-1.86v7.243c0 2.23 1 3.158 2.84 3.158 1.34 0 2.4-.517 3.4-1.404l.14.043.08 1.113h1.66V59.288h-1.86v7.614zM160.67 61.495c0-.309.14-.556.4-.764.32-.164.879-.288 1.46-.288.639 0 1.52.144 2.479.6l.32-1.529c-.92-.35-1.78-.516-2.64-.516-2.16 0-3.759 1.053-3.759 2.745 0 2.972 4.82 3.158 4.82 5.18 0 .35-.14.661-.361.888-.38.248-.9.35-1.46.35-.76 0-1.74-.226-2.84-.784l-.34 1.527c.92.475 1.86.744 2.98.744 2.56 0 3.84-1.403 3.84-3.014 0-3.074-4.9-3.467-4.9-5.14M173.208 66.82c-.74.825-1.66 1.177-2.46 1.177-1.14 0-1.74-.681-1.74-1.693 0-.495.081-.95.32-1.32.76-.434 1.64-.454 2.5-.454.52 0 .92.02 1.38.061v2.23zM171.348 59c-1.16 0-2.36.226-3.44.577l-.12 1.59c1.08-.331 2.3-.537 3.26-.537 1.82 0 2.18.805 2.18 2.415v.205c-.38-.04-.74-.04-1.18-.04-1.1 0-2.4.082-3.24.557-.999.495-1.62 1.527-1.62 2.848 0 1.342.861 2.973 3 2.973 1.16 0 2.18-.476 3.04-1.342l.12.04.14 1.156h1.6v-6.748c0-2.538-1.32-3.694-3.74-3.694zM179.708 66.945V54.912l-1.86.248v12.197c0 .825.04 1.423.381 1.795.38.351.9.413 1.54.413.54 0 1.1-.062 1.56-.166l.099-1.443-1.7-.124c-.02-.29-.02-.517-.02-.887M184.649 63.415c.12-1.114.479-1.816.86-2.312.519-.454 1.22-.598 1.78-.598 1.418 0 2.12.95 2.179 2.91h-4.82zm2.719-4.416c-3.02 0-4.62 2.331-4.62 5.448 0 3.322 1.84 5.22 4.82 5.22.84 0 2.02-.143 3.08-.556l.1-1.466c-1.06.331-2.1.455-2.92.455-1.94 0-3.1-.97-3.2-3.405h6.54c.12-.578.12-1.032.12-1.57 0-2.702-1.54-4.126-3.92-4.126zM205.065 59.04c-1.44 0-2.74.598-3.699 1.196l-.14-.06c-.44-.827-1.24-1.136-2.4-1.136-1.28 0-2.42.536-3.34 1.176l-.14-.04-.06-1.075-1.74.227v10.113h1.861v-7.925c1-.598 1.9-.805 2.599-.805 1.18 0 1.76.516 1.76 1.838v6.892h1.86v-7.243c0-.268 0-.496-.04-.703 1.04-.577 1.92-.784 2.66-.784 1.18 0 1.739.516 1.739 1.838v6.892h1.86v-7.264c0-2.23-.96-3.137-2.78-3.137M221.345 61.908c0-2.888-.76-3.323-4.04-3.323-1.08 0-2.26.042-3.3.145l.14 1.673c.96-.084 2.22-.146 3.16-.146.8 0 1.44.042 1.98.124.08.454.1.909.1 1.425v5.902h-5.44v1.733h8.959V67.77l-1.56-.102v-5.759zM225.105 58.648c-.5 0-1.04 0-1.54.02l.1 1.651h1.44v9.123h1.96v-9.02c0-1.486-.44-1.774-1.96-1.774M237.583 58.668h-1.899l-1.48 5.304-.12.02-3.5-5.407-2.02.207 3.32 4.87c1.04 1.507 2.04 2.766 2.92 3.9l-.04.146-5.48-.041v1.774h7.74l.24-1.609-2.02-2.539v-.165c.92-1.713 1.54-3.653 2.34-6.46M240.204 58.648c-.48 0-1.08 0-1.58.02l.16 1.651h1.44v4.706h1.94v-4.622c0-1.507-.44-1.755-1.96-1.755M250.443 63.56c-.08 1.878-.82 2.89-2.18 3.53l-2.439-8.525-1.94.144 2.76 8.958-2.68.907v1.858l3.82-1.3c2.46-.826 4.238-2.209 4.479-5.2l.42-5.264h-2.02l-.22 4.892zM255.803 58.648c-.5 0-1.04 0-1.54.02l.1 1.651h1.44v9.123h1.96v-9.02c0-1.486-.44-1.774-1.96-1.774M269.503 58.585c-1.76 0-3.7.083-5.4.207l.16 1.671 1.78-.124-.02 6.13c0 .888-.22 1.3-1.2 1.3-.26 0-.48-.02-.88-.04v1.63c.36.104.88.144 1.32.144 2.14 0 2.7-.97 2.7-2.662v-6.583c.64-.022 1.22-.042 1.7-.042 1.04 0 1.96.042 2.7.186.08.722.08 1.403.08 2.064v6.975h1.958v-7.1c0-3.28-.599-3.756-4.898-3.756M277.902 58.648c-.5 0-1.04 0-1.54.02l.1 1.651h1.44v9.123h1.96v-9.02c0-1.486-.44-1.774-1.96-1.774M284.182 58.627c-.741 0-1.08.021-1.6.041l.1 1.651h2.06v7.39h-2.64v1.732h4.58v-7.243c0-2.684.06-3.571-2.5-3.571M295.4 58.585c-1.44 0-2.7.311-4.14 1.115l-.379-1.176-1.78.124.76 2.394-.84 8.4h1.98l.68-8.421c1.26-.578 2.479-.702 3.4-.702.479 0 .839.02 1.16.083.099.805.099 1.61.099 2.455v4.851h-2.98v1.733h4.9v-6.913c0-3.22-.54-3.943-2.86-3.943M309.14 61.64l.259-2.971h-1.94l-.14 2.538c-.04 1.135-.34 2.29-.72 2.972l-.14.061c-1.44-1.815-2.96-3.817-4.54-5.675l-2.159.164c.78.868 1.58 1.818 2.36 2.746v.103c-.76 1.012-1.24 2.332-1.4 3.984l-.34 3.88h1.96l.2-3.262c.06-1.155.28-2.291.62-3.24l.1-.02c1.48 1.899 3.2 4.19 4.819 6.521h2.04v-.226c-.84-1.28-1.68-2.457-2.54-3.632.84-.93 1.42-2.354 1.56-3.943M312.92 58.668L312.72 55.366 310.96 55.572 311.1 58.668 311.34 60.319 316.879 60.319 316.919 60.463 312.98 69.441 315.079 69.441 318.879 60.175 318.699 58.668zM445.057 11.342L449.696 11.342 449.736 11.487 446.297 19.515 449.836 19.515 453.215 10.97 453.015 8.576 447.857 8.576 447.697 5.171 444.657 5.439 444.757 8.576zM457.075 11.735c-.92.949-1.52 2.56-1.64 4.437l-.2 3.342h3.24l.06-2.578c.02-1.095.1-1.982.28-2.973h.14c1.22 1.775 2.36 3.653 3.44 5.551h3.479v-.247c-.78-1.403-1.56-2.662-2.34-3.9 1.08-1.094 1.58-2.93 1.66-4.747l.1-2.044h-3.18l-.06 1.838c-.02.99-.06 1.982-.26 2.786h-.1c-1.1-1.63-2.16-3.138-3.3-4.726l-3.699.268c.86 1.052 1.64 1.96 2.38 2.93v.063zM467.595 11.342L472.234 11.342 472.274 11.487 468.835 19.515 472.374 19.515 475.753 10.97 475.553 8.576 470.394 8.576 470.234 5.171 467.195 5.439 467.295 8.576zM482.294 16.46l-.04.145h-4.42v2.91h8.54l.419-2.415-1.86-2.042v-.166c1.081-1.404 1.56-3.034 2.18-6.316h-3.08l-.78 4.46-.12.02-2.659-4.604-3.479.29 2.68 4.045c1.16 1.733 1.84 2.6 2.62 3.674M492.353 11.363c.52 0 1 .02 1.42.082.04.29.06.62.06 1.095v4.024h-4.58v2.95h9.24V16.73l-1.321-.124v-3.9c0-3.694-1.1-4.253-4.498-4.253-1.16 0-2.36.043-3.44.187l.24 2.868c.88-.062 1.94-.144 2.879-.144M447.455 47.925l-.24-2.414c-.76-.082-1.64.063-2.34.29.041.887.22 1.609.48 2.394l2.1-.27zM450.635 45.511c-.76-.082-1.64.063-2.34.29.04.887.22 1.609.48 2.393l2.1-.268-.24-2.415zM458.315 33.232l-.94.185c-.92-.268-1.9-.701-2.08-1.114.26-.144.58-.228.96-.228.3 0 .66.084.96.207l.26-1.918c-.46-.187-.82-.248-1.2-.248-1.4 0-2.34 1.175-2.34 2.496 0 .454.26.889.7 1.321l-1.12.228v1.423l4.8-.824v-1.528zM491.712 35.007l-.24-2.415c-.76-.082-1.64.062-2.34.29.042.887.221 1.609.481 2.394l2.1-.269zM486.453 35.275l2.1-.268-.24-2.415c-.76-.082-1.64.062-2.34.29.04.887.22 1.609.48 2.393M494.332 45.8c.04.888.22 1.61.48 2.395l2.1-.27-.24-2.414c-.76-.082-1.64.063-2.34.29"/>
                            <path fill="#000" d="M497.872 40.063c0-.846-.08-2.705-.2-4.313l-3 .31.54 5.055c-.8.29-1.5.392-2.58.392-.86 0-1.74-.102-2.399-.392l.14-4.54-2.9.165-.14 4.395c-.58.228-1.24.372-2.34.372h-.001c-1.74 0-1.9-.495-2-1.424l-.3-3.508-2.9.268.42 3.426c.04.392.1.805.16 1.217-.4.084-.84.124-1.26.124-.62 0-1.36-.124-2.119-.35l.52-3.53-2.8-.124-.4 3.613c-.46.288-.84.351-1.38.351-.68 0-1.18-.104-1.76-.351l.18-1.24.3-2.249-2.72.063-.26 2.579c-.08.887-.68 1.135-1.84 1.135l-.009.001h-.01c-.78 0-1.619-.125-2.2-.413l.2-11.599-3.299.289.2 11.33c-.5.227-1.1.392-2.04.392-.86 0-1.74-.102-2.4-.392l.14-4.54-2.9.165-.14 4.395c-.58.228-1.24.372-2.34.372-.86 0-1.74-.102-2.4-.392l.14-4.54-2.9.165-.14 4.395c-.58.228-1.24.372-2.34.372-.72 0-1.58-.06-2.28-.392l.1-11.619-3.3.289.34 14.18c-.94.535-1.92.803-3.039.803-1.92 0-2.66-.846-2.66-2.455 0-.723.12-1.61.46-2.684l-2.48-.432c-.62 1.63-.82 2.868-.82 3.88 0 3.095 1.9 5.076 5.2 5.076 3 0 5.6-1.61 6.1-4.437v.02l.12-.04c.66.618 1.559.887 2.259.887 1.3 0 2.6-.269 3.72-1.156h.16c1.16.99 2.34 1.156 3.76 1.156 1.3 0 2.6-.269 3.72-1.156h.16c1.16.99 2.34 1.156 3.76 1.156 1.22 0 2.4-.227 3.54-1.156h.14c1.08.97 2.4 1.156 3.459 1.156l.01-.001.01.001c1.26 0 2.5-.29 3.28-1.011h.159c1.04.948 2.18 1.093 2.82 1.093 1.08 0 2.06-.413 2.78-.949h.14c.76.64 1.6 1.012 2.88 1.012 1.1 0 2-.228 2.899-.868h.14c.74.454 1.74.723 3.06.723h.001c1.3 0 2.6-.269 3.72-1.156h.16c1.16.99 2.34 1.156 3.76 1.156 1.539 0 2.879-.31 3.64-.743 1.078-.62 1.599-1.837 1.599-3.777M438.297 67.257c-.32.102-.82.124-1.24.124-.42 0-.58-.022-.9-.083v-2.992h1.04c1.1 0 1.64.412 1.64 1.61 0 .556-.12.97-.54 1.34zm-2.14-7.925c.4-.022.8-.042 1.02-.042.86 0 1.44.372 1.44 1.3 0 .538-.2.99-.64 1.281-.28.061-.72.081-1.3.081h-.52v-2.62zm4 3.653v-.166c1.08-.64 1.6-1.527 1.6-2.745 0-2.063-1.52-3.157-4.58-3.157-.88 0-2.74.083-4.18.33v12.404c2.22.226 3.6.226 3.86.226 3.38 0 5.22-1.423 5.22-4.003 0-1.589-.7-2.456-1.92-2.89zM447.157 63.378c.06-.559.2-1.115.44-1.55.42-.328 1-.371 1.26-.371.96 0 1.32.578 1.4 1.92h-3.1zm1.88-4.335c-3.14 0-5.019 2.125-5.019 5.594 0 3.529 2.02 5.261 5.178 5.261 1 0 2.22-.145 3.32-.536l.161-2.311c-1.26.248-2.08.308-3.08.308-1.44 0-2.24-.412-2.44-2.022h5.96c.18-.824.18-1.444.18-2.105 0-2.683-1.6-4.19-4.26-4.19zM458.977 66.885L462.976 61.293 462.935 59.29 455.397 59.29 455.256 61.747 459.256 61.747 459.276 61.891 455.176 67.401 455.077 69.651 462.836 69.651 463.116 67.031 459.016 67.031zM470.516 66.74c-.68.517-1.28.62-1.64.62-.74 0-1.08-.393-1.08-1.073 0-.247.04-.515.22-.846.34-.206.82-.31 1.38-.31.26 0 .7.021 1.16.041l-.04 1.568zm-1.16-7.738c-1.14 0-2.52.227-3.7.64l-.18 2.579c1.14-.33 2.52-.495 3.38-.495 1.74 0 1.78.681 1.74 1.61v.042c-.24-.022-.54-.043-.92-.043-1 0-2.06.166-2.8.455-1.32.516-2.08 1.67-2.08 2.971 0 1.26.7 3.056 3.12 3.056 1.02 0 1.88-.352 2.78-1.199l.12.043.3.99h2.52v-6.812c0-2.62-1.64-3.837-4.28-3.837zM479.475 66.08V54.894l-3.08.434v11.227c0 1.321.16 2.187.66 2.662.54.496 1.24.579 1.98.579.72 0 1.46-.103 1.86-.187l.18-2.455-1.56-.123c-.02-.291-.04-.58-.04-.95M485.734 63.378c.06-.559.2-1.115.44-1.55.42-.328 1-.371 1.26-.371.96 0 1.32.578 1.4 1.92h-3.1zm1.88-4.335c-3.14 0-5.02 2.125-5.02 5.594 0 3.529 2.021 5.261 5.18 5.261 1 0 2.22-.145 3.32-.536l.16-2.311c-1.26.248-2.08.308-3.08.308-1.44 0-2.24-.412-2.44-2.022h5.96c.18-.824.18-1.444.18-2.105 0-2.683-1.6-4.19-4.26-4.19z"/>
                            <g transform="translate(493.825 54.879)">
                                <mask id="hfcybehxjb" fill="#fff">
                                    <use xlink:href="#nxuv74qc5a"/>
                                </mask>
                                <path fill="#000" d="M3.448 12.151c-.02-.29-.04-.578-.04-.95V.015L.328.45v11.227c0 1.321.16 2.187.661 2.662.54.496 1.24.58 1.98.58.72 0 1.46-.104 1.86-.188l.18-2.455-1.56-.124z" mask="url(#hfcybehxjb)"/>
                            </g>
                            <path fill="#000" d="M354.254 13.81c.298 0 .538-.25.537-.557 0-.307-.243-.555-.54-.554-.297 0-.537.25-.537.557.001.307.243.555.54.554M408.39 40.198l-1.364-.023c.007-1.204-.022-2.96-.126-3.986-.348.01-.547.012-.844.072.088 1.756.118 3.069.052 4.672l3.09.05c.012-.218-.034-3.12-.084-4.074l.812-.06c.066 1.383.065 2.694.03 4.253.298.054.496.05.845.05.078-1.092-.07-4.992-.078-5.138l-2.458.175s.127 2.857.125 4.009M383.89 19.667c-.107.056-.432.056-.648.166l.326.506c.161-.114.485-.169.324-.503-.27.055.005.231-.32.231-.067 0-.114-.03-.114-.07-.019-.267.488-.106.432-.33M367.565 20.067c-.323 0-.048-.176-.318-.231-.162.334.163.39.323.502l.327-.505c-.217-.11-.541-.11-.648-.166-.056.224.448.063.43.33 0 .04-.045.07-.114.07M391.008 60.605l5.168.003c.2-.206.4-.416.593-.63l-6.033.001c-4.939-1.229-10.044-1.848-15.167-1.847-5.13-.002-10.232.62-15.175 1.847l-6.02-.002c.2.212.395.42.599.627h5.153l.001 1.481-3.602-.002c5.124 4.546 11.782 7.29 19.05 7.294 7.266 0 13.926-2.748 19.046-7.29l-3.612-.001-.001-1.48z"/>
                            <path fill="#000" d="M355.513 33.235c.035.205.08.412.12.616l-8.405 8.623c-.034-.28-.064-.565-.082-.858l8.367-8.38zm-7.856-.105l7.488-5.366c-.015.202-.018.407-.026.612l-7.628 5.601c.047-.285.104-.568.166-.847zm3.613-9.364l5.259-2.292c-.075.188-.148.386-.213.572l-5.48 2.473c.141-.25.286-.506.434-.753zm5.604-6.804l2.46-.499c-.112.153-.233.309-.34.465l-2.723.591c.195-.189.401-.376.603-.557zm38.797 18.395v.939l-40.208.004-.001-.944h40.21zm-24.282-1.664c-.084-.009-.169-.021-.254-.034-.203-2.08-.54-3.649-1.14-4.88.094-.646.073-1.55-.137-2.341.614.707 1.332 1.168 2.107 1.446.933.331.387.685-.104.683-.496.003-.967-.074-1.25-.29.369.63 1.097 1.154 1.865 1.384.525.158.497.503.011.504-.025-.004-.053-.001-.08-.01-.557-.035-1.342-.315-2.044-.77 1.353 1.953 3.461 2.787 5.62 3.011 1.13.112 1.084 1.118-.219 1.17-1.566.055-2.929-.106-4.492-1.116.845 1.065 2.901 1.923 4.648 2.278h-3.226c.007-.19-.06-.928-1.305-1.035zm.286-10.54l-1.187 3.083c-.063-.063-.122-.127-.182-.196l-.154-.18 1.243-2.829c.092.041.183.082.28.122zm1.99.601l-.711 4.1c-.047-.078-.108-.152-.187-.216-.068-.062-.147-.111-.24-.162l.838-3.784c.097.025.198.044.3.062zm2.244 8.035c-.228-.025-.448-.058-.665-.102l.179-7.75c.053.002.1 0 .154 0 .048.003.1 0 .154.001l.178 7.851zm-6.683-11.296c.013-.525.059-1.034.14-1.512 1.53 1.763 3.74 2.88 6.21 2.875 2.46.003 4.67-1.113 6.198-2.862.078.482.123.987.135 1.515-1.683 1.566-3.899 2.52-6.33 2.52-2.447-.002-4.672-.96-6.353-2.536zm.585-3.138c1.262 1.892 3.378 3.137 5.767 3.139 2.383-.002 4.486-1.244 5.752-3.12.07.17.132.348.186.533-1.363 1.852-3.52 3.053-5.94 3.054-2.432 0-4.588-1.21-5.95-3.076.054-.178.117-.353.185-.53zm2.733-3.262c.354 1.385 1.58 2.416 3.034 2.415 1.45 0 2.67-1.025 3.03-2.405.726.43 1.337.988 1.835 1.655-.888 1.844-2.733 3.118-4.866 3.12-2.137 0-3.982-1.276-4.878-3.133.503-.666 1.114-1.225 1.845-1.652zm1.643-3.743c.011-.191-.043-.555-.115-.735.48-.03 1.016-.038 1.507-.04.486-.001 1.019.011 1.507.04-.081.18-.13.54-.125.737-.418-.215-.887-.343-1.382-.34-.506.001-.972.126-1.392.338zm5.293 12.802c.092-.038.188-.078.28-.121L381 25.862l-.154.179c-.06.07-.121.135-.183.196l-1.184-3.085zm-1.993.603c.103-.017.203-.038.303-.063l.836 3.78c-.093.054-.172.104-.239.166-.076.064-.14.136-.188.217l-.712-4.1zm3.788 2.683c-.209.789-.235 1.695-.133 2.34-.602 1.233-.94 2.801-1.142 4.88-.083.012-.17.03-.256.032-.959.082-1.214.54-1.283.832-.556-.066-1.133-.146-1.63-.247.898-.31 1.54-.644 2.017-.961.481-.322.785-.62 1.01-.861-.772.472-1.645.8-2.573.966.085-.142.132-.308.13-.457.01-.315-.132-.686-.536-.94 1.805-.485 2.815-1.286 3.89-2.636-.699.453-1.485.73-2.043.77-.032.007-.056.009-.081.005-.481 0-.52-.339.015-.496.766-.237 1.493-.757 1.86-1.388-.28.216-.758.29-1.248.292-.491.001-1.044-.354-.112-.682.785-.277 1.502-.74 2.115-1.45zm13.544-4.395c-.072-.2-.141-.386-.211-.576l5.27 2.301c.146.246.295.501.436.748l-5.495-2.473zm-3.02-5.584l2.477.506c.207.18.41.366.606.554l-2.738-.587c-.11-.16-.23-.319-.345-.473zm11.864 17.517l-7.646-5.601c-.009-.212-.015-.419-.027-.625l7.506 5.375c.059.283.113.567.167.851zm.262 8.5l-8.424-8.641c.048-.201.088-.41.127-.609l8.378 8.39c-.024.295-.047.579-.08.86zm-7.88.87l-2.708-3.955v-.978l.082-.002 3.473 4.93-.846.005zm-3.316-3.525l-7.253-.002c-.622-.6-1.327-1.066-2.083-1.407l9.337-.002-.001 1.411zm-2.29 3.521c-.19-.492-.656-.844-1.196-.845-.544.001-1.007.354-1.197.845l-2.388.003.002-2.903 5.73-.003.364 2.903h-1.314zm-1.877 2.894v-2.41c-.002-.388.307-.706.683-.703.37-.001.679.317.68.7v2.41c-.003.388-.307.705-.683.703-.371 0-.679-.317-.68-.7zm3.617.48l.556 4.415-7.08-.003.003-4.413 2.39.001c.186.494.652.846 1.196.845.539 0 1.003-.352 1.19-.848l1.745.004zm.74 5.893h-7.262v-.855l7.152.004.11.851zm1.692 2.88l-8.952-.003v-2.25l8.952.001v2.252zm-18.742-.003v-8.772l9.188.001v8.772l-9.188-.001zm-9.79-.001v-8.772l9.183.003v8.772l-9.183-.003zm-.602 0l-8.956.004v-2.251l8.956-.004v2.252zm-7.156-3.73l7.155-.001v.854h-7.263l.108-.852zm.635-5.043l1.74.005c.19.492.652.846 1.196.845.544 0 1.012-.355 1.196-.85l2.389.002-.003 4.414-7.078.002.56-4.418zm3.617-2.889v2.41c-.003.39-.303.705-.683.703-.37.001-.679-.317-.68-.704v-2.406c.004-.388.307-.705.683-.703.38-.003.678.313.68.7zm-3.193-.48l.359-2.9 5.74-.001-.002 2.902-2.39-.001c-.186-.494-.652-.846-1.195-.845-.546-.004-1.004.352-1.198.844h-1.314zm-.98-4.932l9.342-.003c-.755.343-1.46.813-2.082 1.41h-7.262l.002-1.407zm-1.663-.625l.002-.87 37.657.001.002.865-37.661.004zm28.32 5.56l-9.189-.002.002-3.081c.048-.042.099-.09.146-.132.124-.107.246-.218.374-.31 1.166-.911 2.574-1.403 4.06-1.413l.03.003c1.475.008 2.893.498 4.057 1.41.12.094.25.2.373.307l.148.136-.001 3.082zm2.9.625l.001 2.117h-24.78V43.97h24.78zm-14.359-5.559l3.933-.003c-.711.322-1.372.756-1.958 1.3-.6-.547-1.267-.977-1.975-1.297zm1.145 1.41c.128.092.25.199.373.307l.148.136-.002 3.081-9.184-.002-.002-3.08c.052-.044.104-.087.155-.135.114-.104.237-.215.368-.309 1.163-.91 2.58-1.404 4.056-1.411l.03.002c1.484.006 2.894.498 4.058 1.411zm-19.634 3.522h-.852l3.474-4.934.067-.003.001 1.004-2.69 3.933zm13.528-21.82c-.198-.004-.402.05-.63.142-.22-.236-.305-.443-.332-.695.076.03.148.052.218.064.11.02.214-.09.213-.214.012-.55.115-.84.215-1.004.113-.01.208-.054.276-.096.023-.021.042-.046.064-.071-.052.6-.056 1.221-.024 1.874zm-2.782-2.504c.204-.893.886-1.158 1.468-1.104.591.057 1.231.474 1.235 1.148 0 .14-.036.308-.138.384-.112.074-.266.034-.38-.021-.625-.272-1.38-.41-2.185-.407zm-.91 1.193c.024-.26.04-.532.04-.81.598-.075 1.177-.07 1.716.005-.245.302-.778.747-1.756.805zm17.602-.494c.059.045.151.09.268.095.097.164.207.459.215 1.009.005.122.1.232.206.215.073-.014.15-.034.22-.067-.02.254-.101.459-.328.696-.23-.095-.435-.146-.632-.146.035-.65.029-1.274-.024-1.872.026.028.042.054.075.07zm1.264-1.801c.051-.008.1-.006.147-.008.424 0 .872.178 1.138.642-1.074-.002-1.98.276-2.516.607.001-.035-.006-.063-.005-.098.008-.668.643-1.085 1.236-1.143zm1.4.872c.017.07.05.146.065.227-.8.002-1.555.142-2.178.411-.119.05-.272.095-.376.023-.025-.024-.048-.043-.059-.065.507-.334 1.43-.621 2.549-.596zm.938.614c0 .139.004.277.01.42-.502-.065-.754-.293-.871-.477.276.008.568.018.861.057zm.042.81c-.982-.056-1.514-.506-1.76-.806.195-.03.395-.041.594-.053.12.237.418.633 1.152.702.004.054.007.108.014.156zm-39.513 23.753h13.926l.002 2.122h-13.521c.825 3.634 2.293 7.019 4.265 10.02h48.443c1.977-2.999 3.447-6.384 4.268-10.02l-13.531-.002-.001-2.116 13.94-.004c.244-1.559.368-3.156.37-4.787.002-12.947-7.935-24.014-19.045-28.303-1.238-.481-2.512-.874-3.826-1.167 1.268.424 2.673 1.117 4.09 2.079 5.66 3.851 11.43 11.874 8.646 22.833-.015.038-.026.07-.037.108l-.832.001c.01-.058.018-.124.035-.193.072-.257.122-.449.217-.916-.256.399-.55.778-.865 1.108h-1.372c.333-.454.535-.938.641-1.492-.399.62-.815 1.13-1.277 1.491h-1.001c.01-.013.03-.033.047-.043.46-.312 1.55-1.58 1.532-3.067-.292 1.263-1.288 2.463-2.378 3.111l-1.114-.002c.016-.013.03-.017.048-.021.58-.289 1.738-1.08 2.046-1.78-.974.733-2.046 1.357-3.033 1.8l-1.69.002c1.417-.637 2.649-1.397 3.229-2.784-1.473 1.279-3.193 2.293-5.771 2.783l-4.083.002c-.02-.18.22-.365.751-.418 3.604-.31 8.366-2.068 9.446-5.193-1.816 1.993-4.487 3.555-6.716 3.398-.834-.064-1.047-.73-.113-.886 3.004-.504 5.902-2.299 6.278-5.129-.564 1.512-1.646 2.476-2.947 2.692-.472.077-.828-.26-.137-.491.814-.275 1.932-1.13 2.023-2.087-.382.77-1.15 1.056-1.666 1.075-.416.013-.394-.217-.014-.379.091-.038.183-.097.273-.165.555-.45.898-1.483.894-2.993-.003-.114-.002-.228-.008-.356-1.312.89-2.409 1.892-2.372 3.001.04.999-.108 2.662-.917 3.839-.485.164-.989.29-1.502.377-.861.147-1.143.651-1.121 1.083.027.57.542.989 1.291 1.04.068.002.142.008.21.01-.753.21-1.535.365-2.3.467.34-3.098.877-4.762 2.215-6.677l-.092-.046c-.414.38-.76.802-1.057 1.286-.025-.66.07-1.444.318-2.07.051.052.093.106.147.15l.086.078.105-.027c.883-.212 2.3-1.063 3.27-1.914l-.12-.153c-.92.738-2.271 1.399-3.143 1.598-.35-.312-.746-.717-.502-2.057l-.093-.026c-.148.441-.222.813-.222 1.135-.22-.072-.368-.426-.26-1.572.066-.688.164-.838.674-1.222.505-.379.974-.29 1.408-.09.24.113.172.235.002.224-.174-.02-.492-.003-.492-.003.326.175.46.274.57.37.112.101.1.253-.145.196-.24-.057-.505-.138-.686-.17.194.148.323.26.447.416.09.111-.043.24-.198.12-.168-.12-.448-.222-.7-.247.199.103.319.201.424.299.098.089-.001.213-.137.13-.206-.117-.69.077-.94-.067l.08.193c.116.104.274.139.524.139l.107.002c.034.001.059.005.08.014.072.041.157.07.23.07.143-.002.266-.073.336-.18.037.015.077.02.12.018.164.003.31-.094.374-.245.023-.046.036-.109.038-.16.222-.002.352-.14.393-.27.058-.138.02-.297-.076-.432.047-.046.092-.118.105-.186.017-.088.03-.291-.216-.456.104-.146.194-.329.243-.53.154-.02.491-.077.62-.02-.018.064-.122.11-.204.171v.08c.153-.024.27-.1.319-.196.036-.089.112-.273-.047-.256-.168.003-.466-.015-.64-.054.004-.046.007-.092.004-.146.07-.068.127-.151.155-.253l-.059-.025c-.084.091-.238.15-.478.173-.045-.426-.11-.737-.19-.95.039-.015.08-.026.122-.047.288-.123.613-.217.959-.281.129.176.367.447.766.663.12.456-.068 1.17-.298 1.438-.078.035-.15.074-.22.126-.334.25-.496.655-.587 1.22-.203.032-.412.165-.552.425l.068.057c.08-.205.454-.23.747-.172.069-.535.264-1.042.54-1.252.253-.19.62-.31 1.04-.223l.028-.147c-.22-.092-.444-.139-.652-.125.182-.48.183-.857.062-1.258.292.133.657.228 1.104.247.085.57.262 1.1.608 1.618l.267-.188.006.003v-.004c.11-.596.167-1.161.166-1.703 0-3.469-2.132-5.773-3.653-6.669 1.8 1.594 3.388 3.78 3.112 7.618-.205-.568-.27-1.173-.264-1.865 0-.08-.06-.154-.14-.163-.24-.033-.482-.06-.723-.062-.22-1.171-1.12-1.506-1.812-1.443-.613.054-1.261.44-1.465 1.073-.477-2.471-1.837-4.378-3.979-5.407-2.109-1.018-1.474-2.294-.488-2.18-.277-.371-.396-.862-.184-1.26.163-.325.543-.582 1.232-.64-.461-.056-.929-.1-1.392-.124-.644-.053-1.289-.07-1.939-.072-.655 0-1.304.022-1.953.07-.466.025-.927.07-1.38.126.68.064 1.053.315 1.219.64.212.398.095.89-.182 1.26.988-.115 1.62 1.164-.49 2.178-2.139 1.033-3.5 2.939-3.977 5.407-.204-.628-.846-1.015-1.468-1.073-.689-.062-1.591.27-1.813 1.445-.24.002-.48.029-.721.062-.08.01-.144.082-.134.164 0 .695-.061 1.302-.274 1.879-.274-3.846 1.315-6.044 3.116-7.635-1.753 1.037-4.329 3.946-3.489 8.382l.275.182c.346-.52.522-1.048.611-1.618.448-.02.805-.118 1.1-.248-.12.398-.123.782.054 1.258-.2-.013-.42.034-.643.126l.026.148c.421-.09.792.03 1.04.219.286.21.473.723.543 1.252.295-.056.666-.033.754.173l.059-.06c-.135-.258-.35-.391-.551-.424-.093-.563-.252-.964-.588-1.22-.065-.048-.142-.089-.218-.123-.223-.266-.42-.98-.3-1.44.402-.212.645-.483.769-.664.344.066.67.16.956.286.042.019.084.033.12.043-.083.215-.147.525-.188.953-.237-.023-.391-.083-.476-.175l-.061.025c.03.102.084.187.157.253-.006.056-.005.1.002.149-.174.034-.472.056-.633.048-.167-.012-.093.173-.048.261.042.093.167.17.312.193v-.08c-.082-.058-.185-.106-.2-.171.125-.058.472.002.616.02.048.201.14.386.244.534-.245.162-.23.362-.213.452.012.07.048.141.104.192-.103.13-.133.287-.08.428.042.133.17.264.394.271-.003.05.018.115.038.16.065.151.214.247.377.245.043 0 .08-.006.116-.02.074.11.201.177.332.179.087.002.167-.024.239-.067.017-.01.044-.017.073-.014l.112.001c.25 0 .409-.04.524-.14l.082-.2c-.259.146-.734-.05-.946.075-.124.081-.231-.045-.129-.136.094-.094.223-.197.42-.297-.254.025-.543.125-.691.247-.163.122-.296-.008-.212-.12.13-.157.258-.264.448-.418-.176.03-.44.113-.686.172-.237.056-.25-.095-.14-.198.109-.092.242-.196.567-.365 0 0-.318-.022-.487-.003-.174.015-.242-.107 0-.219.433-.2.898-.29 1.41.09.506.386.604.53.665 1.22.108 1.146-.033 1.5-.256 1.572-.001-.323-.072-.692-.222-1.136l-.09.024c.237 1.34-.151 1.748-.504 2.062-.868-.204-2.216-.86-3.14-1.602l-.118.155c.967.854 2.381 1.703 3.266 1.917l.102.024.087-.077c.057-.045.103-.091.153-.144.246.618.34 1.404.31 2.062-.294-.48-.641-.903-1.051-1.285l-.091.044c1.34 1.916 1.876 3.582 2.211 6.681-.766-.1-1.546-.258-2.299-.466.076-.005.143-.008.213-.016.744-.052 1.264-.47 1.29-1.037.016-.432-.264-.936-1.117-1.08-.518-.09-1.021-.219-1.508-.382-.8-1.176-.957-2.84-.918-3.839.036-1.107-1.06-2.113-2.371-2.998-.008.127-.005.24-.005.36-.007 1.507.343 2.535.894 2.985.086.072.176.128.267.164.382.166.408.393-.01.38-.514-.016-1.287-.304-1.666-1.077.089.967 1.204 1.818 2.022 2.09.692.234.335.57-.137.492-1.304-.216-2.385-1.18-2.947-2.69.376 2.83 3.274 4.619 6.28 5.127.934.157.72.824-.113.884-2.224.16-4.904-1.402-6.72-3.395 1.078 3.122 5.842 4.883 9.447 5.193.532.052.77.24.75.419l-4.08-.004c-2.573-.491-4.3-1.503-5.77-2.78.58 1.382 1.813 2.143 3.229 2.783l-1.686-.004c-.993-.44-2.068-1.068-3.04-1.802.305.707 1.464 1.497 2.047 1.78.016.005.032.011.05.026l-1.113-.002c-1.093-.638-2.088-1.848-2.383-3.109-.017 1.486 1.075 2.755 1.534 3.064l.055.046-1.01.002c-.46-.364-.876-.873-1.277-1.496.11.558.313 1.038.645 1.494l-1.368-.001c-.325-.329-.618-.705-.87-1.108.09.47.14.66.213.92.021.068.032.13.04.188l-.837.002c-.01-.038-.021-.07-.03-.107-2.78-10.949 2.97-18.964 8.626-22.814 1.4-.962 2.805-1.666 4.065-2.09-1.303.305-2.576.698-3.814 1.175-11.085 4.304-18.999 15.36-19.001 28.287-.002 1.626.123 3.224.366 4.786z"/>
                            <g transform="translate(337.428)">
                                <mask id="0h8wvl999d" fill="#fff">
                                    <use xlink:href="#685r9bpixc"/>
                                </mask>
                                <path fill="#000" d="M38.146 77.408C17.723 77.406 1.108 60.256 1.107 39.18 1.11 18.102 17.727.955 38.149.953c20.423.003 37.036 17.148 37.04 38.229-.004 21.078-16.616 38.224-37.043 38.226M38.148.073C17.255.077.255 17.616.26 39.18c0 21.564 16.998 39.107 37.887 39.104 20.894.001 37.893-17.537 37.895-39.101C76.037 17.619 59.043.075 38.148.073" mask="url(#0h8wvl999d)"/>
                            </g>
                            <path fill="#000" d="M356.412 8.41l.55.929c1.491-.93 3.23-1.911 4.623-2.687.45-.26.45 0 .598.363 0 0-1.293 1.135-2.04 1.81-.497.413-.847 1.083-.398 1.808l.397.674 1.046-.673-.4-.724-.596.414c-.15-.26-.198-.518.697-1.189l2.439-1.862-.598-1.243c-.397-.828-.597-.776-1.243-.466-1.393.724-3.233 1.76-4.429 2.483l-.246-.416c-.2-.31-.298-.36-.45-.256-.348.205-.595.413-.844.62l.447.723.447-.308zM364.919 5.98c-.597.827-.15 2.07.198 3.154.547-.258.845-.412 1.542-.672l-.449-.878-.845.362c-.149-.517-.346-1.398.1-1.862 3.183.518 4.428.31 5.47 1.347l.25-.105c-.198-.777-.595-1.085-1.29-1.396.692-.62 1.192-1.551.744-2.896-.696.05-1.242.153-1.791.258l.15.982c.448-.103.796-.155 1.243-.207-.05.516-.1 1.085-.996 1.553-2.138-.57-3.78-.52-5.52-1.141l-.15.156c.25.775.648 1.086 1.344 1.344M372.18 2.774l.05 1.088c1.79-.052 3.73-.054 5.322 0 .498 0 .349.26.35.62 0 0-1.643.362-2.637.567-.597.107-1.194.518-1.194 1.347v.828c.347-.05.794-.05 1.241 0 .05-.26.102-.465.002-.88h-.698c.002-.258.05-.518 1.195-.672l2.934-.36.102-1.397c.048-.93-.151-.981-.894-1.035-1.543-.103-3.633-.104-5.026-.054V2.31c.001-.31-.1-.415-.248-.415l-1.046.104.05.827.498-.052zM386.205 7.846c-.247-.361-.446-.566-.694-.826l.793-.724c.299-.258.45-.622.599-1.034.15-.414-.05-.62-.348-.724-.497-.208-.547-.207-1.194-.416l-.347 1.088 1.044.36c-.1.415-.4.829-.798 1.138l-2.834-2.327-.2-.931c-.543-.155-.943-.206-1.589-.31l-.249 1.085 1.69.363c1.094 1.086 2.139 2.173 3.233 3.362-1.74-.57-3.532-1.035-5.273-1.397-.149.362-.248.725-.297 1.034 1.939.415 4.176.983 5.967 1.658.248-.466.347-.828.497-1.4M391.131 8.934c-.002-.464-.896-.516-.75.311.399.31.847.103.75-.31"/>
                            <path fill="#000" d="M386.853 9.604c1.54.778 3.928 2.072 5.47 3.263l.745-.932c-.246-.205-.545-.413-.895-.621 1.145-.258 1.193-.36 1.59-.93l.4-.567c.449-.673.3-1.035-.2-1.398-1.64-1.19-3.033-2.02-5.02-2.897l-.498.982c1.988.88 3.182 1.604 4.922 2.899l-.448.773c-.298.466-.546.571-1.342.828-1.342-.828-2.735-1.654-4.228-2.327l-.496.927zM408.903 44.397l.703.347c-.048.417-.095.779-.188 1.094l-.747.01.232-1.45zm-2.959-1.56c.755.452 1.403.754 2.209 1.257l-.273 1.816-2.487.142-.137.935 4.874-.336c.141-.673.274-1.453.314-2.331l-4.41-2.415-.09.932zM403.624 52.06c1.093.621 1.89.932 2.785 1.398l.349-.829c-.696-.412-1.294-.621-1.99-1.033.35-.882.562-1.483.863-2.415l3.629.933.249-.931-4.476-1.14c-.447 1.399-.912 2.672-1.409 4.017M401.015 56.785l.695.568c.747-1.083 1.295-2.016 1.841-2.999l1.045.57c-.497 1.084-1.045 2.017-1.69 3.206l.694.412 1.792-3.258.645.364c-.546 1.397-.995 2.07-1.69 3.362l.645.464c.896-1.343 1.494-2.583 2.191-4.19l-4.079-2.119c-.647 1.345-1.294 2.327-2.09 3.62M399.722 58.593l2.586 2.123-2.339.154.299 2.535-2.686-2.38-.597.672 3.63 3.107c.25-.208.498-.467.695-.776l-.347-2.329 2.387-.051.5-.827-3.632-2.95-.496.722zM397.778 16.237l1.499-1.387c-.147-.207-.344-.416-.592-.677-.45.515-1.4 1.39-2.1 2.108 1.037.989 1.646 1.687 2.337 2.465l3.499-2.924-.592-.677c-.952.82-1.9 1.591-2.85 2.362l-1.201-1.27zM402.213 23.838l.697-.52c-.699-1.293-1.244-2.172-1.89-3.155l1.094-.776c.647 1.191 1.195 1.966 1.84 3.208l.696-.413-1.84-3.208.648-.465c.398.62 1.491 2.327 1.889 3.26l.747-.466c-.944-1.812-1.593-2.744-2.538-4.139l-3.729 2.792c.845 1.19 1.64 2.535 2.386 3.882M406.676 24.094c.644 1.032.894 1.967 1.14 2.689.2.624-.596.78-.747.316-.3-.882-.647-1.761-1.095-2.64l.702-.365zm-3.434 1.813l2.037-1.036c.298.619.548 1.032.747 1.657l-1.89 1.704.348.984 1.94-1.916c.695 1.501 2.636.624 2.14-.874-.45-1.4-.744-2.02-1.543-3.415-1.343.62-2.733 1.445-4.131 2.117l.352.78zM405.833 34.728c1.785-.219 3.02-.469 4.554-.73l-.175-.824c-1.287.255-2.228.39-3.614.595-.176-.77-.301-1.595-.526-2.363 1.032-.398 2.164-.8 3.395-1.153l-.226-.872c-1.674.576-2.51.812-4.28 1.496.343 1.333.634 2.668.872 3.851M392.316 66.003l-1.124.733.562.954.764-.489c.153-.097.305-.195.448.018l.468.743.32-.556-.847-1.275c-.143-.215-.287-.322-.591-.128M388.866 67.908c-1.067.52-2.842 1.32-4.914 2.002l.35 1.105c2.423-.771 3.44-1.295 4.863-1.9.354-.141.606-.234.835.243l1.228 2.748.628-.748-1.514-3.02c-.366-.743-.814-.761-1.476-.43M382.113 70.39l-1.405.31.159 1.144 1.054-.22c.298-.04.447-.035.533.385.208 1.093.242 1.56.491 2.968l.712-.44-.768-3.55c-.129-.573-.376-.686-.776-.597M379.243 70.924l-1.293.028.028 1.138 1.145.022c-.015.67-.028 1.448-.084 1.758-1.01.756-1.854.793-2.65.777l-1.045-.022c.212-.668.524-1.387.835-2.104.105-.259.206-.41.604-.403l.299.004-.028-1.136c-.697.038-1.194.028-2.04.01l-.022 1.14.844.016-.77 1.33c-.615 1.02-.816 1.069-1.859.945l.088-2.016c.003-.156.057-.31.305-.304l.548.012-.028-1.14c-.351-.008-1.245-.077-1.99-.143l-.07 1.138.596.063-.211 3.359c1.438.185 3.575.328 5.02.148 1.106-.597 1.461-.901 2.221-1.713.109-.463.073-1.239.094-2.327.006-.414-.138-.57-.537-.58M370.174 70.587c-2.09-.465-2.733-.621-4.13-1.036l.151-.518c.099-.31-.05-.413-.199-.464l-.896-.31-.297.878.497.157-.3 1.033c1.791.569 3.533.984 4.576 1.19.748.156.598.105.497.724l-2.387.157c-.647.05-1.291.153-1.543.928l-.247.776c.397.155.695.26 1.192.364l.25-.777-.645-.206c.048-.257.297-.311.496-.31l3.532.053.248-1.45c.149-.93-.098-1.032-.795-1.19M362.504 70.15l-.707 1.34c-2.134-.941-3.37-1.672-5.205-3.029l.454-.772c.297-.464.55-.57 1.342-.823l3.725 2.143c.542.313.69.523.391 1.142m.01-2.174c-1.538-.783-3.324-1.779-4.856-2.975l-.752.929c.246.205.543.417.892.625-1.143.25-1.2.354-1.597.923l-1.004 1.386c2.379 1.774 4.017 2.714 6.992 4.026l1.008-1.964c.851-1.8.854-2.168-.683-2.95M349.565 59.843c-.49-.733-1.174-1.67-1.566-2.295-.932-1.406.42-2.067 1.055-1.072l1.664 2.5-1.153.867zm-1.099.815c-.889-1.148-1.228-1.617-2.012-2.867-.343-.523.158-.88.55-.31.78 1.15 1.325 1.83 2.009 2.768l-.547.409zm-1.548-4.313c-1.144-.014-1.904.907-.871 2.47.681 1.048 1.71 2.457 2.25 3.079l3.517-2.749-2.058-3.233c-.88-1.353-2.678-.702-2.838.433zM346.497 49.203l-.8.352c.533 1.35.969 2.286 1.455 3.38l-1.1.556c-.534-1.197-1.07-2.238-1.455-3.484l-.75.353 1.405 3.482-.701.407c-.293-.573-1.163-2.702-1.452-3.587l-.701.302c.625 1.974 1.162 3.013 1.842 4.473 1.5-.761 2.501-1.268 4.003-2.18-.582-1.247-1.164-2.704-1.746-4.054M341.714 45.318c.692.423 3.11 2.262 3.75 2.786l.649-.253c-.383-1.4-.716-2.8-.949-4.356l-.845.147c.09.982.325 2.073.514 2.903l-3.406-2.368-.797.147c.23 1.71.71 3.318 1.14 4.874l.85-.3c-.338-1.091-.623-2.18-.906-3.58M341.972 39.478l-.737-.58.012-.928.75-.407-.025 1.915zm3.068 2.053c-.843-.578-1.433-.948-2.273-1.632.012-1.032.071-1.862.13-2.692l2.153-1.215.06-1.03c-1.702.91-3.253 1.667-4.707 2.583-.056.726-.06 1.189-.016 1.65 2.02 1.682 3.997 3.051 4.737 3.423l-.084-1.087zM346.313 29.334l-2.676-.961-.306.877 1.881.694c-.258.876-.567 1.905-.726 2.888l-3.576-.61-.158.928 4.467.725c.316-1.6.63-2.89 1.094-4.54M348.766 23.362l-.742-.368c-.66 1.231-1.171 2.363-1.682 3.705l-1.138-.533c.461-1.286 1.122-2.624 1.681-3.808l-.74-.37c-.659 1.079-1.273 2.674-1.782 3.807l-.545-.265c.565-1.597.97-2.471 1.684-3.91l-.742-.373c-.812 1.49-1.527 3.14-2.142 4.84 1.437.638 2.821 1.22 4.308 1.757.464-1.445 1.227-3.09 1.84-4.482M352.056 18.282l-2.565-2.048-.504.77 1.874 1.419-1.564 2.256-3.014-2.051-.458.823c1.434.947 2.372 1.632 3.805 2.475.76-1.233 1.668-2.412 2.426-3.644M396.038 12.977c.29-.063.479-.357.418-.657-.06-.3-.345-.494-.637-.432-.29.063-.478.357-.418.657.06.3.346.494.637.432M396.247 65.121c-.298-.007-.544.236-.551.543-.007.307.228.561.526.568.297.007.544-.235.55-.542.007-.307-.228-.561-.525-.569M353.174 63.635c-.295.039-.505.317-.467.62.037.305.306.521.601.483.295-.039.504-.316.467-.62-.037-.306-.306-.521-.601-.483"/>
                            <mask id="flefap61af" fill="#fff">
                                <use xlink:href="#0qow1r4kve"/>
                            </mask>
                            <path fill="#000" d="M375.406 18.305L375.902 18.305 375.902 17.076 375.406 17.076zM374.786 16.992L374.457 16.901 374.15 18.088 374.479 18.179zM373.286 17.719L373.879 16.655 373.584 16.479 372.991 17.544zM372.248 16.958L373.088 16.087 372.846 15.84 372.006 16.71zM372.294 15.025L371.264 15.642 371.436 15.946 372.465 15.329zM377.004 18.088L376.697 16.901 376.368 16.992 376.675 18.179zM378.163 17.544L377.569 16.479 377.274 16.654 377.868 17.72zM379.147 16.71L378.307 15.84 378.065 16.087 378.906 16.958zM379.889 15.643L378.86 15.025 378.689 15.329 379.718 15.946z" mask="url(#flefap61af)"/>
                        </g>
                    </g>
                </g>
            </g>
        </g>
    </g>
</svg>
